<?xml version="1.0" encoding="UTF-8" standalone="no"?>
<!-- Created with Inkscape (http://www.inkscape.org/) -->

<svg
   width="297mm"
   height="210mm"
   viewBox="0 0 297 210"
   version="1.1"
   id="svg5"
   inkscape:version="1.2.1 (9c6d41e410, 2022-07-14)"
   sodipodi:docname="test.svg"
   xmlns:inkscape="http://www.inkscape.org/namespaces/inkscape"
   xmlns:sodipodi="http://sodipodi.sourceforge.net/DTD/sodipodi-0.dtd"
   xmlns="http://www.w3.org/2000/svg"
   xmlns:svg="http://www.w3.org/2000/svg">
  <sodipodi:namedview
     id="namedview7"
     pagecolor="#ffffff"
     bordercolor="#666666"
     borderopacity="1.0"
     inkscape:showpageshadow="2"
     inkscape:pageopacity="0.0"
     inkscape:pagecheckerboard="0"
     inkscape:deskcolor="#d1d1d1"
     inkscape:document-units="mm"
     showgrid="false"
     inkscape:zoom="0.914906"
     inkscape:cx="396.76207"
     inkscape:cy="557.98082"
     inkscape:window-width="3840"
     inkscape:window-height="2066"
     inkscape:window-x="-11"
     inkscape:window-y="-11"
     inkscape:window-maximized="1"
     inkscape:current-layer="layer1" />
    <path
       style="fill:none;stroke:#ff0000;stroke-width:0.26458333;stroke-linecap:butt;stroke-linejoin:miter;stroke-opacity:1;stroke-dasharray:none;vector-effect:non-scaling-stroke;-inkscape-stroke:hairline"
       d="M 0.000000,68.145000 0.891000,69.037500 1.386000,69.247500 1.386000,69.457500 1.683000,69.720000 1.831500,70.402500 2.079000,70.612500 2.128500,71.452500 2.574000,71.557500 2.574000,71.872500 5.098500,71.767500 5.841000,72.975000 6.237000,73.132500 6.583500,73.027500 7.177500,73.395000 7.722000,74.287500 8.019000,74.497500 7.870500,74.917500 10.345500,74.812500 10.494000,75.075000 10.989000,75.075000 11.731500,75.915000 11.880000,76.545000 12.226500,77.017500 12.622500,76.650000 13.365000,76.807500 13.513500,76.545000 13.909500,76.492500 13.909500,76.755000 14.355000,76.860000 14.454000,77.332500 15.048000,77.490000 15.642000,77.175000 15.642000,77.385000 16.137000,77.647500 16.533000,78.277500 16.879500,78.435000 18.612000,77.857500 19.552500,77.857500 19.701000,77.962500 19.602000,78.382500 19.800000,78.750000 20.443500,78.907500 21.285000,78.592500 21.730500,79.275000 22.126500,79.380000 22.720500,79.222500 23.364000,78.750000 23.710500,78.802500 23.661000,79.380000 23.611500,79.065000 23.710500,79.170000 23.809500,78.907500 24.057000,78.907500 24.304500,79.275000 24.849000,79.590000 25.740000,79.275000 26.235000,78.907500 28.165500,78.907500 28.462500,79.222500 29.106000,79.275000 29.353500,79.170000 29.551500,78.750000 29.799000,78.750000 30.393000,79.327500 30.690000,79.275000 32.026500,79.957500 32.868000,78.855000 34.303500,78.750000 34.897500,78.907500 35.194500,78.750000 35.491500,77.910000 38.263500,77.910000 39.303000,78.172500 39.501000,78.382500 40.243500,77.542500 40.788000,77.280000 40.788000,76.807500 41.085000,76.807500 41.481000,76.492500 41.926500,76.545000 41.877000,76.807500 41.679000,76.912500 41.877000,76.965000 42.075000,76.545000 42.817500,76.545000 42.867000,76.702500 42.174000,77.280000 43.164000,77.490000 43.164000,76.492500 43.411500,76.125000 43.560000,76.177500 43.560000,76.387500 45.688500,76.387500 45.738000,76.177500 46.035000,76.020000 45.787500,75.967500 45.886500,75.495000 46.431000,75.390000 46.777500,74.865000 47.223000,74.865000 47.718000,74.392500 48.510000,74.707500 48.559500,73.710000 48.114000,74.182500 47.817000,74.077500 47.817000,73.762500 48.411000,73.027500 48.658500,73.027500 48.906000,73.552500 49.153500,73.605000 51.034500,73.552500 51.183000,73.185000 51.232500,71.662500 51.925500,71.505000 51.133500,71.452500 51.331500,70.822500 51.727500,70.717500 51.975000,70.350000 52.371000,70.455000 52.470000,70.927500 52.618500,70.507500 54.153000,70.297500 53.806500,70.087500 53.806500,69.720000 54.351000,69.667500 54.846000,69.877500 54.846000,69.615000 55.192500,69.037500 55.192500,67.777500 55.440000,67.725000 56.133000,66.885000 56.677500,66.885000 56.925000,66.360000 58.261500,66.097500 58.311000,65.152500 58.756500,64.102500 59.053500,64.207500 59.103000,63.945000 59.499000,63.787500 59.598000,63.577500 61.033500,63.157500 61.033500,61.215000 61.281000,60.690000 61.974000,60.742500 63.013500,60.427500 63.112500,59.745000 62.815500,59.640000 62.766000,59.430000 63.360000,59.220000 63.409500,57.697500 64.102500,57.277500 64.300500,56.857500 64.795500,56.857500 65.191500,56.490000 65.439000,55.755000 65.637000,55.650000 65.389500,55.177500 65.439000,54.337500 65.241000,53.865000 65.488500,53.760000 65.637000,53.970000 65.884500,53.497500 66.280500,53.235000 66.379500,52.657500 67.023000,53.235000 66.973500,53.602500 66.973500,52.290000 68.310000,52.080000 67.864500,51.817500 67.270500,51.817500 66.825000,52.395000 66.676500,52.395000 66.231000,52.185000 66.231000,51.712500 66.726000,51.712500 66.973500,51.082500 67.419000,50.610000 67.914000,50.872500 67.765500,50.505000 68.211000,50.137500 68.211000,49.560000 68.013000,49.455000 68.013000,48.247500 68.805000,47.302500 68.409000,46.200000 68.409000,45.937500 68.706000,45.727500 68.557500,44.940000 68.854500,44.730000 69.151500,44.047500 70.290000,42.892500 70.240500,42.420000 69.943500,41.632500 69.696000,41.475000 69.696000,41.160000 70.686000,40.110000 70.686000,39.847500 70.438500,39.690000 69.993000,38.692500 69.844500,38.902500 69.696000,38.850000 69.646500,38.220000 69.696000,37.800000 70.092000,37.537500 70.092000,36.907500 70.587000,35.647500 71.329500,35.017500 71.329500,34.755000 70.884000,34.335000 70.933500,33.810000 70.735500,33.967500 70.735500,33.442500 70.983000,33.442500 70.983000,32.865000 71.280000,32.655000 71.329500,32.287500 70.834500,31.657500 70.686000,30.922500 70.290000,30.870000 70.141500,30.660000 70.240500,28.455000 70.537500,28.245000 70.537500,27.772500 70.735500,27.615000 70.983000,28.087500 70.983000,27.247500 70.834500,27.195000 70.983000,25.672500 70.785000,25.357500 70.983000,24.412500 70.834500,24.727500 70.636500,24.727500 69.696000,23.782500 69.646500,23.467500 69.399000,23.257500 69.498000,22.470000 69.399000,22.627500 69.250500,22.575000 69.201000,21.630000 68.953500,21.525000 69.052500,20.685000 68.904000,20.527500 68.904000,19.897500 69.201000,19.320000 69.448500,17.850000 69.300000,17.745000 69.250500,18.060000 68.953500,18.165000 68.409000,17.797500 68.409000,16.380000 67.171500,15.540000 67.023000,15.067500 66.577500,14.595000 66.825000,13.177500 66.280500,12.547500 66.280500,12.022500 66.429000,11.445000 66.627000,11.392500 66.627000,11.970000 66.973500,12.442500 67.072500,10.605000 66.924000,10.447500 66.478500,10.447500 66.231000,10.762500 66.033000,10.762500 65.538000,10.342500 65.538000,10.132500 65.488500,10.342500 65.191500,10.342500 64.894500,10.027500 64.746000,9.660000 64.746000,8.610000 64.548000,8.557500 64.201500,8.767500 63.805500,8.557500 63.954000,8.295000 64.399500,8.347500 64.399500,7.665000 63.904500,7.665000 63.756000,8.347500 63.459000,8.347500 63.459000,7.875000 63.310500,7.822500 63.310500,7.612500 63.459000,7.560000 63.409500,6.405000 62.815500,5.827500 62.964000,5.775000 63.112500,5.302500 62.617500,4.882500 62.518500,4.410000 62.271000,4.200000 61.479000,4.095000 61.429500,3.937500 61.825500,3.727500 61.776000,3.622500 60.984000,3.465000 60.588000,3.727500 60.340500,2.572500 59.449500,2.205000 59.301000,2.467500 59.152500,2.415000 58.806000,1.312500 58.509000,0.892500 58.509000,0.630000 58.707000,0.525000 59.103000,0.945000 59.152500,0.000000"
       id="path176" />
    <path
       style="fill:none;stroke:#ff0000;stroke-width:0.26458333;stroke-linecap:butt;stroke-linejoin:miter;stroke-opacity:1;stroke-dasharray:none;vector-effect:non-scaling-stroke;-inkscape-stroke:hairline"
       d="M 12.276000,162.540000 12.523500,165.532500 12.672000,165.637500 12.721500,166.110000 13.761000,167.895000 14.850000,168.997500 15.493500,169.417500 15.592500,169.680000 15.840000,169.627500 16.434000,170.152500 17.127000,170.362500 17.325000,170.677500 17.869500,170.782500 17.919000,170.992500 18.265500,170.940000 18.760500,171.097500 18.958500,171.360000 19.750500,171.517500 19.948500,171.622500 19.948500,171.832500 20.889000,171.885000 21.235500,172.200000 21.730500,172.147500 22.225500,172.305000 22.275000,172.515000 22.720500,172.357500 22.770000,172.515000 23.463000,172.567500 23.611500,172.777500 24.750000,172.777500 25.839000,173.092500 26.433000,173.040000 29.700000,173.460000 32.125500,173.460000 32.323500,173.670000 32.967000,173.460000 34.848000,173.460000 38.065500,173.145000 40.689000,172.672500 42.322500,172.200000 43.164000,172.252500 43.362000,171.937500 46.035000,171.360000 47.569500,170.782500 48.262500,170.730000 49.896000,169.995000 50.935500,169.732500 54.895500,174.457500 53.955000,176.347500 53.460000,179.445000 53.806500,181.387500 54.450000,182.647500 55.786500,184.065000 56.974500,185.692500 58.410000,186.795000 60.291000,187.267500 62.914500,187.005000 64.350000,186.480000 66.033000,185.482500 66.924000,184.747500 68.310000,183.120000 69.399000,181.440000 69.844500,180.232500 70.240500,178.762500 70.389000,176.505000 69.597000,174.142500 68.112000,172.357500 67.716000,172.095000 67.419000,171.570000 67.171500,171.465000 67.023000,171.097500 66.181500,170.310000 65.538000,169.890000 63.954000,169.365000 62.271000,169.312500 60.786000,169.627500 60.588000,168.105000 60.588000,166.740000 60.786000,166.215000 60.786000,165.532500 61.033500,165.112500 61.578000,164.955000 61.677000,164.692500 64.201500,163.485000 64.498500,163.485000 64.548000,163.642500 64.597500,163.327500 65.241000,162.960000 65.637000,162.960000 65.934000,162.645000 66.627000,162.435000 66.924000,162.172500 67.815000,162.015000 68.013000,161.857500 67.963500,161.647500 69.102000,161.280000 69.745500,160.807500 70.389000,160.702500 70.636500,160.387500 70.933500,160.387500 71.478000,160.020000 71.973000,160.072500 72.171000,159.705000 74.101500,158.812500 74.448000,158.812500 74.695500,158.602500 75.141000,158.707500 75.339000,158.287500 75.933000,157.972500 76.428000,157.920000 76.725000,158.130000 76.972500,157.605000 77.863500,157.080000 80.932500,155.820000 81.279000,155.505000 81.675000,155.452500 83.457000,154.507500 84.150000,154.455000 84.348000,154.140000 85.239000,153.667500 85.635000,153.825000 85.882500,153.615000 85.684500,153.457500 86.724000,153.195000 86.872500,152.932500 87.565500,152.565000 88.258500,152.407500 88.605000,152.040000 90.684000,151.200000 91.080000,150.885000 91.426500,150.885000 92.218500,150.360000 92.763000,150.360000 92.812500,150.150000 94.297500,149.310000 95.386500,148.785000 95.733000,148.785000 95.782500,148.627500 98.554500,147.420000 98.950500,147.105000 99.891000,146.842500 100.732500,146.212500 101.524500,146.212500 101.376000,146.002500 101.623500,145.845000 103.306500,145.005000 103.851000,144.900000 103.900500,144.690000 105.286500,144.112500 105.534000,143.850000 106.969500,143.377500 107.019000,143.167500 107.365500,142.957500 107.761500,142.905000 109.197000,142.065000 109.642500,142.012500 110.038500,141.645000 111.375000,140.962500 111.771000,140.910000 112.662000,140.280000 113.602500,140.175000 113.701500,139.755000 114.394500,139.597500 114.444000,139.440000 115.483500,138.915000 116.275500,138.757500 116.424000,138.442500 117.117000,138.075000 117.612000,138.022500 117.760500,137.707500 118.849500,137.340000 119.146500,137.025000 119.790000,136.867500 119.889000,136.710000 120.384000,136.710000 120.780000,136.237500 121.473000,136.027500 122.611500,135.345000 123.007500,135.292500 123.156000,135.030000 124.146000,134.662500 124.492500,134.347500 125.779500,133.927500 125.779500,133.717500 126.670500,133.350000 127.017000,133.035000 127.462500,132.982500 128.848500,132.142500 130.779000,131.355000 130.878000,131.145000 132.709500,130.200000 133.353000,130.147500 133.452000,129.832500 134.046000,129.622500 134.392500,129.307500 135.630000,129.412500 136.273500,129.202500 136.966500,128.677500 137.362500,127.837500 137.659500,127.837500 137.610000,128.152500 137.808000,128.257500 137.907000,127.890000 138.352500,127.680000 144.540000,131.040000 144.342000,133.612500 144.490500,134.662500 144.787500,135.450000 146.173500,136.972500 148.797000,138.495000 149.688000,138.915000 151.272000,138.915000 153.202500,138.180000 154.539000,137.182500 155.479500,136.185000 156.420000,134.820000 156.964500,133.822500 156.964500,133.402500 157.360500,132.405000 157.608000,131.040000 157.509000,129.097500 157.261500,127.890000 156.618000,126.787500 155.479500,125.685000 154.588500,125.422500 152.064000,124.110000 151.618500,124.057500 150.084000,124.215000 149.539500,124.425000 148.648500,124.897500 146.916000,126.315000 144.688500,124.530000 144.342000,124.057500 146.817000,122.692500 147.658500,122.587500 147.708000,122.325000 148.549500,122.010000 148.599000,121.852500 149.341500,121.485000 150.579000,121.117500 151.272000,120.592500 151.717500,120.645000 151.816500,120.435000 153.301500,119.857500 153.895500,119.962500 154.044000,119.490000 157.162500,118.335000 157.410000,118.072500 158.647500,117.652500 159.439500,117.180000 160.281000,117.022500 160.627500,116.655000 162.112500,115.815000 162.607500,115.762500 162.855000,115.342500 164.191500,114.660000 166.765500,112.612500 167.310000,112.455000 167.359500,112.140000 167.854500,111.667500 168.102000,111.772500 168.300000,111.562500 168.151500,111.405000 168.300000,111.247500 168.597000,111.300000 168.597000,110.985000 168.943500,110.932500 169.042500,110.512500 169.438500,110.092500 169.587000,110.145000 169.884000,109.672500 170.428500,109.567500 170.527500,109.252500 170.775000,109.147500 170.527500,108.990000 171.616500,107.677500 172.111500,107.415000 172.111500,107.205000 173.893500,104.790000 174.388500,103.687500 174.636000,103.530000 174.834000,102.795000 175.180500,102.532500 175.081500,102.322500 175.873500,100.590000 176.071500,99.697500 176.269500,99.435000 176.220000,99.120000 176.418000,99.015000 176.566500,98.542500 176.319000,96.022500 176.319000,95.655000 176.517000,95.655000 176.566500,95.392500 176.467500,95.130000 176.170500,95.235000 175.873500,94.972500 174.982500,93.712500 174.685500,93.660000 173.052000,92.557500 172.359000,92.452500 172.210500,92.242500 171.171000,91.875000 164.092500,89.722500 163.498500,89.407500 160.776000,88.672500 157.608000,88.095000 155.925000,88.042500 153.895500,88.305000 150.232500,89.512500 148.302000,90.562500 147.559500,90.772500 146.916000,91.245000 145.876500,91.612500 145.579500,91.927500 145.084500,92.085000 141.867000,94.185000 140.877000,95.025000 137.263500,97.492500 136.620000,97.702500 136.075500,98.122500 133.353000,99.487500 131.422500,100.275000 129.690000,100.800000 129.442500,100.747500 129.096000,101.010000 113.652000,104.947500 109.939500,106.312500 109.395000,106.365000 108.949500,106.680000 106.672500,107.467500 106.227000,107.782500 104.791500,108.150000 103.207500,109.042500 102.712500,109.042500 102.663000,109.200000 102.019500,109.147500 101.871000,109.567500 101.425500,109.777500 100.831500,109.882500 100.584000,109.620000 100.534500,110.145000 99.792000,110.512500 90.882000,114.345000 90.337500,114.450000 89.941500,114.765000 89.397000,114.870000 86.476500,116.235000 86.080500,116.287500 83.655000,117.495000 81.675000,118.230000 80.437500,118.912500 72.171000,122.482500 71.082000,123.112500 68.062500,124.320000 67.914000,124.530000 67.072500,124.740000 66.429000,125.212500 64.845000,125.947500 63.508500,126.420000 62.518500,126.997500 62.172000,126.997500 59.400000,128.415000 53.608500,130.935000 52.767000,131.512500 52.420500,131.565000 48.262500,133.717500 47.619000,134.190000 47.025000,134.347500 40.738500,137.865000 40.095000,138.390000 39.649500,138.442500 39.600000,138.652500 38.511000,139.492500 36.877500,140.437500 30.096000,145.477500 29.205000,146.107500 28.957500,146.107500 28.413000,146.685000 24.502500,149.310000 21.285000,151.882500 21.087000,151.882500 19.651500,152.985000 19.354500,152.985000 18.859500,153.457500 18.216000,153.772500 18.067500,154.035000 16.731000,154.980000 13.365000,158.865000 13.018500,159.705000 12.870000,161.122500 12.474000,162.015000 12.523500,162.330000 12.325500,162.487500"
       id="path177" />
    <path
       style="fill:none;stroke:#ff0000;stroke-width:0.26458333;stroke-linecap:butt;stroke-linejoin:miter;stroke-opacity:1;stroke-dasharray:none;vector-effect:non-scaling-stroke;-inkscape-stroke:hairline"
       d="M 296.950500,166.162500 296.059500,162.540000 294.921000,160.072500 294.772500,159.180000 292.644000,154.192500 291.852000,152.880000 291.406500,152.407500 290.416500,151.830000 289.624500,150.990000 289.080000,149.887500 288.634500,146.790000 288.387000,146.265000 287.694000,145.320000 286.060500,143.692500 285.615000,142.905000 285.219000,139.702500 284.476500,137.707500 284.377500,135.817500 283.932000,134.400000 283.437000,133.560000 283.437000,132.930000 283.239000,132.615000 283.140000,131.827500 282.150000,129.937500 281.556000,129.150000 281.308500,127.837500 279.823500,124.477500 279.081000,123.322500 278.586000,121.957500 278.487000,120.120000 278.289000,119.437500 277.200000,117.705000 276.507000,116.970000 275.418000,116.392500 274.477500,115.657500 273.883500,114.870000 272.844000,114.660000 272.250000,114.030000 270.517500,113.032500 267.250500,110.617500 266.359500,110.092500 264.825000,109.567500 264.627000,109.305000 263.736000,108.885000 262.449000,107.940000 260.023500,106.732500 259.182000,105.997500 258.291000,105.630000 256.311000,104.317500 255.667500,103.687500 252.796500,101.692500 251.509500,100.485000 249.034500,99.067500 247.549500,97.807500 244.777500,95.865000 243.391500,94.605000 242.253000,93.292500 240.669000,90.300000 239.431500,87.517500 238.293000,85.942500 237.996000,85.627500 237.798000,85.627500 237.847500,84.420000 237.600000,83.632500 238.293000,82.687500 238.540500,81.217500 239.679000,79.957500 239.926500,77.910000 240.124500,77.490000 240.124500,76.650000 240.916500,76.177500 241.659000,76.230000 242.797500,75.915000 244.134000,74.760000 245.124000,72.607500 245.569500,70.560000 245.520000,69.405000 245.668500,69.142500 245.520000,65.047500 245.767500,63.840000 245.322000,61.320000 244.728000,59.902500 243.589500,58.747500 243.193500,57.487500 243.292500,57.120000 242.649000,54.600000 241.956000,53.130000 241.312500,52.237500 240.718500,50.715000 239.283000,47.932500 238.441500,46.882500 237.352500,46.095000 236.461500,45.622500 234.234000,44.992500 232.897500,43.207500 232.254000,43.207500 231.066000,43.942500 230.422500,43.785000 229.135500,42.472500 228.987000,42.000000 228.244500,41.317500 225.522000,40.057500 225.027000,40.057500 224.334000,40.320000 223.047000,39.952500 221.116500,40.057500 220.324500,40.372500 219.879000,40.792500 218.988000,40.950000 217.008000,42.315000 215.473500,43.050000 213.394500,43.102500 211.167000,43.627500 208.989000,45.045000 208.296000,45.937500 207.256500,46.200000 207.009000,46.777500 205.821000,47.355000 205.177500,47.985000 204.138000,48.615000 201.415500,51.397500 201.168000,52.237500 201.316500,53.707500 202.455000,55.702500 203.247000,57.487500 203.098500,57.907500 202.603500,58.432500 202.603500,58.800000 202.257000,59.535000 202.207500,60.637500 202.059000,60.952500 200.871000,62.317500 200.673000,63.525000 200.178000,64.155000 200.178000,64.785000 200.425500,65.467500 201.514500,66.675000 201.960000,68.092500 201.712500,68.617500 201.762000,68.880000 201.217500,69.930000 200.029500,71.137500 199.138500,72.450000 197.653500,75.442500 197.257500,77.017500 197.257500,78.697500 197.950500,80.062500 198.396000,80.535000 198.990000,80.692500 200.178000,80.640000 200.623500,80.850000 200.524500,82.162500 200.673000,82.530000 201.118500,83.160000 201.267000,83.737500 202.158000,84.525000 202.108500,84.892500 201.514500,85.785000 201.465000,86.677500 201.613500,87.307500 201.910500,87.885000 203.692500,89.565000 203.841000,90.142500 200.970000,94.920000 199.782000,98.647500 198.693000,99.172500 196.267500,100.852500 193.099500,102.112500 191.911500,102.952500 190.575000,104.475000 190.525500,104.895000 189.486000,106.575000 188.743500,108.307500 188.001000,109.515000 187.308000,111.825000 186.961500,112.402500 186.862500,113.872500 186.615000,114.607500 186.763500,115.185000 186.615000,116.287500 186.169500,116.602500 185.773500,117.180000 184.437000,121.117500 184.486500,122.010000 183.793500,124.950000 183.892500,126.367500 183.793500,127.470000 183.645000,127.680000 183.645000,128.625000 183.051000,130.620000 182.853000,131.932500 181.665000,135.135000 181.467000,135.345000 180.675000,138.022500 180.427500,141.645000 180.526500,143.377500 179.982000,145.320000 179.635500,147.367500 178.942500,149.100000 178.744500,150.202500 177.903000,152.880000 177.705000,154.245000 176.962500,156.397500 177.012000,157.027500 176.764500,157.867500 176.863500,160.282500 175.131000,162.120000 174.784500,162.750000 174.240000,163.170000 174.289500,163.327500 173.646000,164.220000 173.200500,165.427500 173.398500,166.792500 170.973000,167.212500 169.636500,168.052500 168.943500,168.735000 168.597000,169.522500 168.498000,170.467500 167.161500,172.672500 166.765500,173.617500 166.765500,175.822500 167.359500,177.292500 167.359500,178.185000 167.607000,178.500000 167.656500,179.182500 165.924000,180.075000 165.033000,181.020000 164.587500,181.755000 165.478500,181.860000 167.211000,181.230000 168.448500,181.177500 169.636500,183.540000 169.636500,184.117500 169.290000,185.220000 169.438500,185.955000 169.290000,186.847500 169.438500,187.950000 169.290000,189.525000 169.834500,190.890000 171.072000,192.045000 171.418500,192.097500 174.487500,193.987500 176.962500,196.350000 178.893000,194.407500 179.982000,192.307500 180.675000,191.520000 181.665000,189.630000 182.506500,188.737500 184.090500,187.897500 184.783500,187.320000 185.922000,186.795000 186.714000,186.112500 187.753500,185.745000 187.753500,186.480000 187.555500,186.742500 187.456500,187.687500 187.110000,188.475000 186.862500,189.682500 186.516000,190.260000 186.516000,190.942500 186.169500,191.415000 185.922000,194.145000 184.387500,195.930000 182.902500,197.295000 182.407500,198.135000 182.110500,200.235000 182.259000,200.707500 182.160000,204.277500 181.813500,206.430000 181.516500,207.322500 181.368000,209.947500"
       id="path178" />
    <path
       style="fill:none;stroke:#ff0000;stroke-width:0.26458333;stroke-linecap:butt;stroke-linejoin:miter;stroke-opacity:1;stroke-dasharray:none;vector-effect:non-scaling-stroke;-inkscape-stroke:hairline"
       d="M 296.950500,179.917500 296.010000,181.702500 296.010000,182.122500 295.564500,183.015000 295.416000,183.855000 294.426000,186.532500 294.376500,187.162500 293.832000,188.160000 293.683500,188.947500 292.990500,190.575000 291.505500,193.830000 289.971000,195.720000 290.218500,196.927500 290.119500,198.030000 290.268000,198.292500 290.268000,198.975000 289.822500,202.912500 290.763000,204.960000 290.763000,205.537500 291.159000,206.640000 291.109500,207.480000 291.555000,209.055000 291.456000,209.947500"
       id="path179" />
  </g>
</svg>
